<?xml version="1.0" standalone="no"?>
<!DOCTYPE svg PUBLIC "-//W3C//DTD SVG 20010904//EN"
 "http://www.w3.org/TR/2001/REC-SVG-20010904/DTD/svg10.dtd">
<svg version="1.0" xmlns="http://www.w3.org/2000/svg"
 width="1440.000000pt" height="1440.000000pt" viewBox="0 0 1440.000000 1440.000000"
 preserveAspectRatio="xMidYMid meet">
<metadata>
Created by potrace 1.14, written by Peter Selinger 2001-2017
</metadata>
<g transform="translate(0.000000,1440.000000) scale(0.100000,-0.100000)"
fill="#000000" stroke="none">
<path d="M6730 13885 c-49 -11 -120 -24 -215 -40 -16 -3 -43 -8 -60 -11 -39
-8 -63 -12 -105 -18 -19 -3 -57 -10 -85 -15 -27 -6 -66 -13 -85 -15 -19 -3
-46 -8 -60 -11 -14 -3 -37 -7 -52 -10 -16 -3 -40 -7 -55 -10 -16 -3 -39 -7
-53 -10 -14 -3 -38 -7 -55 -10 -25 -3 -350 -60 -460 -81 -16 -3 -44 -7 -62 -9
-18 -2 -36 -6 -40 -8 -5 -3 -29 -8 -53 -12 -25 -3 -52 -8 -60 -10 -8 -2 -33
-6 -55 -10 -36 -5 -149 -25 -230 -40 -16 -3 -43 -8 -60 -10 -16 -3 -41 -7 -55
-10 -14 -3 -41 -8 -60 -10 -19 -3 -46 -8 -60 -12 -38 -9 -51 -12 -100 -18 -25
-3 -52 -7 -60 -10 -21 -6 -99 -20 -165 -30 -16 -2 -42 -7 -57 -10 -16 -3 -40
-7 -55 -10 -16 -3 -41 -8 -58 -11 -16 -3 -41 -7 -55 -9 -14 -3 -41 -7 -60 -10
-19 -2 -46 -7 -60 -10 -29 -6 -54 -11 -135 -26 -76 -14 -90 -17 -90 -19 0 -1
-9 -3 -20 -5 -11 -1 -42 -8 -70 -15 -27 -7 -59 -14 -70 -15 -11 -2 -21 -4 -22
-5 -2 -2 -6 -3 -10 -4 -30 -7 -53 -19 -53 -27 0 -5 -7 -9 -15 -9 -8 0 -15 -3
-15 -7 0 -5 -21 -21 -45 -38 -49 -33 -154 -170 -159 -207 -2 -13 -6 -30 -9
-38 -10 -27 -40 -164 -43 -195 -2 -16 -5 -46 -8 -65 -2 -19 -7 -60 -11 -90 -7
-61 -10 -81 -20 -160 -4 -30 -8 -66 -10 -80 -10 -100 -16 -148 -20 -170 -3
-14 -7 -47 -10 -74 -2 -26 -7 -65 -9 -85 -3 -20 -8 -58 -11 -86 -3 -27 -8 -63
-10 -80 -3 -16 -7 -52 -10 -79 -4 -43 -17 -151 -30 -241 -4 -29 -12 -92 -20
-165 -2 -19 -9 -71 -15 -115 -5 -44 -12 -107 -16 -139 -3 -33 -7 -62 -9 -65
-1 -3 -6 -40 -10 -81 -4 -41 -9 -84 -11 -95 -3 -11 -6 -45 -9 -76 -2 -31 -6
-69 -9 -85 -5 -30 -21 -152 -31 -243 -4 -30 -8 -61 -10 -70 -1 -9 -6 -45 -9
-81 -4 -36 -9 -76 -11 -90 -2 -14 -7 -50 -10 -81 -3 -31 -8 -67 -10 -80 -3
-13 -8 -55 -11 -94 -3 -38 -8 -72 -9 -75 -2 -3 -7 -37 -10 -75 -4 -38 -8 -76
-10 -85 -2 -8 -6 -46 -10 -85 -9 -80 10 -58 -284 -335 -84 -80 -172 -163 -195
-185 -23 -22 -111 -105 -196 -185 -84 -80 -177 -167 -205 -195 -29 -27 -119
-113 -201 -190 -81 -77 -169 -160 -194 -185 -26 -25 -107 -101 -180 -170 -169
-158 -169 -158 -219 -231 -37 -54 -51 -92 -76 -204 -3 -11 -8 -33 -11 -50 -12
-52 -13 -77 -4 -100 5 -12 10 -35 13 -51 14 -83 40 -171 56 -189 10 -11 30
-37 44 -59 24 -36 126 -149 268 -297 35 -37 125 -131 199 -210 74 -78 158
-166 185 -195 28 -28 86 -90 130 -136 44 -47 141 -149 215 -227 74 -79 160
-169 190 -200 30 -32 118 -124 195 -206 77 -81 163 -172 190 -201 63 -66 312
-329 345 -364 14 -15 97 -103 186 -196 88 -93 194 -205 235 -248 41 -44 99
-105 129 -136 30 -31 118 -123 195 -205 190 -202 200 -212 361 -381 78 -82
161 -170 185 -195 24 -26 106 -111 181 -190 75 -79 155 -164 179 -189 174
-186 309 -327 337 -355 17 -18 32 -39 32 -47 0 -7 4 -18 10 -24 5 -5 11 -21
14 -34 2 -14 5 -25 6 -25 1 0 3 -8 5 -17 2 -10 12 -46 23 -80 10 -35 29 -94
40 -133 12 -38 36 -117 53 -175 18 -58 32 -106 31 -107 -1 -2 6 -22 14 -45 9
-24 17 -52 19 -62 3 -10 9 -33 15 -51 6 -18 13 -41 15 -51 3 -10 19 -64 36
-119 55 -178 80 -260 84 -280 3 -11 12 -40 20 -65 19 -56 95 -308 99 -329 2
-9 6 -23 9 -31 3 -8 29 -94 57 -190 29 -96 55 -184 60 -195 4 -11 31 -98 59
-194 46 -156 57 -182 103 -246 50 -70 172 -170 218 -181 11 -2 29 -6 41 -9 11
-2 29 -7 39 -10 30 -10 104 -25 133 -28 9 -1 17 -5 17 -10 0 -4 6 -5 13 0 6 4
17 8 22 9 6 1 42 9 80 19 39 9 78 18 88 20 43 9 62 19 130 69 40 28 106 87
147 131 41 44 102 107 135 142 33 34 86 89 117 123 32 33 60 60 62 60 5 0 -8
14 182 -186 83 -88 164 -173 180 -190 16 -16 52 -46 79 -64 28 -19 59 -43 71
-52 11 -10 32 -21 45 -24 47 -10 65 -14 139 -33 41 -10 78 -17 83 -14 4 2 7
-1 7 -8 0 -8 4 -8 15 1 8 7 15 10 15 7 0 -3 20 1 45 9 25 7 45 11 45 8 0 -3 8
0 18 5 9 5 31 11 47 14 66 12 77 18 148 68 112 80 177 178 212 319 2 8 8 29
15 45 6 17 11 31 11 33 -1 1 0 4 0 7 1 3 2 8 3 13 1 4 10 34 20 67 10 33 19
65 20 70 1 6 4 15 7 20 4 6 10 24 14 40 5 17 9 35 11 40 44 151 40 137 47 155
3 8 24 80 47 160 24 80 51 170 62 202 10 31 25 78 32 105 8 26 24 82 36 123
12 41 23 80 24 85 2 6 6 17 9 25 3 8 21 69 41 135 20 66 41 134 46 152 6 18
13 40 15 50 7 33 55 188 70 226 8 20 13 37 10 37 -2 0 0 12 6 28 9 21 37 115
63 207 62 222 76 249 179 356 50 52 151 158 222 233 72 76 155 164 185 196 30
31 118 124 195 205 77 82 163 172 190 201 28 28 113 118 190 200 213 225 275
290 340 359 33 34 123 129 200 211 77 82 163 172 190 200 28 28 113 118 190
200 200 211 272 287 340 358 33 35 121 127 195 206 74 79 155 164 180 190 90
94 339 357 411 434 41 43 101 107 134 141 33 34 116 122 185 195 69 73 154
162 189 199 293 305 360 391 375 484 3 15 7 35 10 45 3 9 8 28 10 42 3 14 9
41 14 60 6 24 2 59 -11 115 -10 44 -21 91 -23 105 -9 50 -17 66 -69 140 -30
43 -110 129 -184 199 -72 68 -158 149 -190 180 -33 31 -119 112 -192 181 -72
69 -158 150 -190 180 -121 116 -337 321 -418 396 -45 44 -109 104 -140 134
-32 30 -121 115 -198 187 l-140 133 -7 58 c-4 31 -8 68 -10 82 -3 14 -7 50
-11 80 -3 30 -8 71 -10 90 -5 33 -7 54 -20 170 -3 25 -8 61 -11 80 -3 19 -7
53 -9 75 -3 22 -7 60 -10 85 -3 25 -8 65 -10 90 -3 25 -7 59 -10 75 -2 17 -7
53 -10 80 -3 28 -10 82 -15 120 -5 39 -12 93 -15 120 -5 49 -11 93 -20 165 -3
19 -7 55 -10 80 -3 25 -7 61 -10 80 -2 19 -7 58 -10 85 -7 60 -24 197 -30 243
-3 18 -7 54 -10 80 -3 26 -10 79 -15 117 -5 39 -12 95 -15 125 -3 30 -7 66 -9
80 -6 34 -15 106 -21 155 -2 22 -6 60 -9 85 -3 25 -8 61 -11 80 -2 19 -7 60
-10 90 -3 30 -10 89 -15 130 -6 41 -12 93 -15 115 -2 22 -7 54 -9 70 -2 17 -8
62 -11 100 -10 90 -9 88 -18 103 -5 6 -6 12 -4 12 3 0 1 17 -4 38 -17 66 -19
77 -24 105 -19 101 -96 209 -203 286 -39 29 -81 54 -92 57 -11 2 -30 6 -42 9
-13 2 -35 7 -50 11 -15 3 -30 5 -33 5 -2 0 -19 5 -37 10 -18 6 -42 12 -53 14
-36 8 -70 15 -100 20 -16 3 -41 7 -55 10 -38 7 -205 36 -237 40 -15 2 -28 4
-28 5 0 2 -33 9 -80 16 -55 8 -72 11 -135 23 -30 6 -64 13 -76 15 -12 2 -45 7
-75 11 -30 4 -58 9 -62 12 -5 3 -23 7 -40 9 -18 3 -54 9 -82 15 -27 5 -63 11
-80 13 -32 4 -98 16 -130 23 -11 3 -31 6 -45 8 -14 2 -25 4 -25 5 0 1 -9 3
-20 4 -11 2 -38 6 -60 10 -22 4 -49 9 -60 10 -38 6 -100 17 -145 26 -25 6 -56
12 -70 14 -46 7 -95 16 -125 22 -16 3 -40 7 -52 9 -22 3 -103 18 -113 20 -3 1
-30 5 -60 10 -30 5 -57 9 -60 10 -15 4 -98 19 -115 21 -11 1 -22 3 -25 4 -6 3
-10 4 -75 14 -27 5 -59 11 -70 13 -11 3 -33 6 -50 9 -16 2 -41 6 -55 10 -14 3
-38 8 -55 10 -50 8 -68 11 -130 22 -33 6 -76 14 -95 17 -19 3 -57 10 -85 15
-27 5 -66 12 -85 15 -19 3 -50 10 -67 15 -35 9 -52 8 -69 -2 -6 -4 -21 -9 -35
-11 -13 -3 -42 -10 -64 -15 -22 -6 -56 -14 -75 -17 -31 -5 -95 -41 -127 -72
-7 -6 -28 -21 -47 -33 l-35 -21 -46 33 c-25 18 -61 45 -81 60 -20 15 -56 30
-82 34 -26 4 -64 13 -84 20 -21 7 -38 12 -38 10 0 -2 -19 1 -42 8 -34 10 -55
10 -98 1z m493 -4148 c-2 -4 0 -6 5 -5 14 5 112 -84 105 -96 -3 -6 -2 -8 2 -3
10 9 55 -31 55 -50 0 -7 6 -12 13 -10 6 1 11 -4 9 -11 -1 -8 1 -11 6 -8 14 9
95 -71 87 -85 -5 -8 -4 -10 3 -5 6 4 32 -13 59 -38 46 -44 47 -46 28 -60 -11
-8 -24 -12 -29 -9 -5 4 -6 2 -3 -4 8 -13 -31 -45 -45 -37 -7 5 -8 2 -3 -5 7
-13 -32 -64 -44 -56 -4 2 -16 -10 -26 -26 -13 -19 -26 -28 -38 -25 -10 2 -14
0 -11 -6 10 -16 -134 -148 -154 -142 -14 5 -14 4 -3 -4 13 -9 11 -14 -9 -30
-33 -26 -57 -16 -51 21 1 5 -3 6 -8 3 -5 -4 -45 28 -88 69 -42 41 -79 75 -81
75 -12 0 -32 32 -26 41 4 8 3 9 -4 5 -7 -4 -37 18 -73 53 -34 34 -66 61 -71
61 -6 0 -7 7 -4 16 3 8 2 12 -3 9 -5 -3 -12 -1 -16 4 -7 12 53 67 67 63 5 -1
7 1 4 6 -2 4 27 37 65 73 39 35 113 105 166 156 76 74 97 90 108 80 7 -7 11
-15 8 -20z"/>
<path d="M7230 9601 c0 -6 4 -13 10 -16 6 -3 7 1 4 9 -7 18 -14 21 -14 7z"/>
<path d="M7280 9480 c-9 -6 -10 -10 -3 -10 6 0 15 5 18 10 8 12 4 12 -15 0z"/>
<path d="M7306 9398 c3 -5 10 -6 15 -3 13 9 11 12 -6 12 -8 0 -12 -4 -9 -9z"/>
<path d="M6866 9362 c-3 -5 1 -9 9 -9 8 0 12 4 9 9 -3 4 -7 8 -9 8 -2 0 -6 -4
-9 -8z"/>
<path d="M7186 9242 c-3 -5 1 -9 9 -9 8 0 12 4 9 9 -3 4 -7 8 -9 8 -2 0 -6 -4
-9 -8z"/>
</g>
</svg>
